<svg width="159" height="48" viewBox="0 0 159 48" fill="none" xmlns="http://www.w3.org/2000/svg">
<path d="M90.8735 24.3151C92.1956 24.3151 93.3141 24.3151 94.5683 24.3151C95.5333 27.5377 96.4983 30.7662 97.5578 34.3164C98.7028 30.7869 99.7475 27.5702 100.804 24.3121C101.796 24.3121 102.811 24.3121 103.926 24.3121C104.953 27.5259 105.989 30.7692 107.108 34.2721C108.356 30.84 109.138 27.5023 110.212 24.3239C111.398 24.3239 112.514 24.3239 113.694 24.3239C112.11 29.512 110.431 34.5968 108.669 39.6166C107.648 39.6166 106.765 39.6166 105.747 39.6166C105.65 39.3776 105.458 39.0943 105.428 38.7962C105.319 37.6807 104.797 36.6862 104.466 35.6474C103.92 33.9151 103.283 32.2064 102.752 30.4652C102.66 30.1642 102.477 29.8927 102.271 29.4766C101.111 32.9235 99.9836 36.273 98.871 39.5812C97.8735 39.5812 96.9557 39.5812 95.9435 39.5812C94.1138 34.5761 92.774 29.4146 90.8735 24.3151Z" fill="white"/>
<path d="M35.4752 39.2979C34.1561 39.2979 32.9432 39.2979 31.683 39.2979C31.683 32.7435 31.683 26.2185 31.683 19.6582C31.7893 19.552 31.928 19.4133 32.0814 19.2598C34.8673 19.2598 37.6797 19.1123 40.4656 19.3011C43.1806 19.4841 45.4618 20.5436 46.7514 23.2586C47.74 25.3332 47.2974 29.1313 45.4647 30.719C43.9331 32.0411 42.2805 32.8084 40.2796 32.832C38.7126 32.8497 37.1456 32.8349 35.4723 32.8349C35.4723 33.9446 35.4723 35.0129 35.4723 36.0812C35.4752 37.1141 35.4752 38.1469 35.4752 39.2979ZM35.5195 22.506C35.5195 24.9437 35.5195 27.2367 35.5195 29.5563C37.5971 29.5563 40.5836 30.114 42.3425 28.7506C43.2042 28.0836 43.7531 27.0124 43.7354 25.9205C43.7088 24.4007 42.6346 23.1907 41.2181 22.7775C40.7282 22.6418 35.5195 22.3201 35.5195 22.506Z" fill="white"/>
<path d="M83.9857 27.3282C83.0413 26.9799 81.9258 27.1865 81.0316 27.5967C80.4001 27.8859 79.4203 28.845 79.4203 29.6153C79.4203 32.6992 79.4203 35.9808 79.4203 39.2949C78.2546 39.2949 77.1391 39.2949 75.9645 39.2949C75.9645 32.3451 75.9645 25.3952 75.9645 18.4099C77.1037 18.4099 78.2221 18.4099 79.4409 18.4099C79.4409 20.939 79.4409 23.4681 79.4409 26.0444C80.0843 25.5693 80.6627 25.1857 81.188 24.743C82.2652 23.837 83.8174 23.8606 85.1454 24.0554C90.7171 24.8699 89.4482 32.0854 89.4895 36.0694C89.4983 37.0462 89.4836 38.0112 89.4836 38.991C89.4836 39.0795 89.4806 39.1798 89.4157 39.2418C89.3537 39.3038 89.2534 39.3067 89.1649 39.3067C88.0848 39.3008 87.0047 39.2949 85.9245 39.289C85.6973 39.2802 85.9777 35.2991 85.9806 34.8801C86.0042 32.7936 86.5177 28.2637 83.9857 27.3282Z" fill="white"/>
<path d="M32.9668 0.372756C35.4723 0.372756 37.9748 0.360952 40.4803 0.375708C41.5545 0.38161 42.6051 0.682623 43.4934 1.29055C44.6237 2.0667 45.4795 3.14385 45.4913 4.56334C45.4972 5.08273 45.4382 5.60508 45.4706 6.12153C45.5946 8.05746 44.2489 9.68057 42.4576 10.2678C43.697 12.1182 44.8716 13.8711 46.0786 15.6713C44.7299 15.6713 43.4167 15.6713 42.0355 15.6713C41.044 14.181 40.0199 12.6376 38.9634 11.0469C38.1666 11.0469 37.3433 11.0469 36.3812 11.0469C36.3369 11.7434 36.3724 12.5107 36.3635 13.275C36.3576 14.0541 36.3606 14.8332 36.3606 15.6625C35.2008 15.6625 34.0823 15.6625 32.9579 15.6625C32.7631 14.5086 32.7631 1.58566 32.9668 0.372756ZM36.4078 3.64259C36.4078 5.07978 36.4078 6.39008 36.4078 7.72398C37.42 7.72398 38.4322 7.72398 39.4415 7.72398C40.5187 7.72398 41.6726 7.43772 42.0326 6.27498C42.3218 5.34243 41.829 4.30954 40.9908 3.84622C40.5275 3.58947 39.9757 3.56586 39.4474 3.59832C39.2615 3.60718 36.4078 3.64259 36.4078 3.64259Z" fill="white"/>
<path d="M88.4093 3.83138C88.5539 4.31537 88.6306 4.84952 88.6336 5.42794C88.6365 6.30442 88.5451 7.20156 88.1673 7.99245C87.586 9.21126 86.4439 9.48572 85.5851 10.3947C86.1635 11.2564 86.7478 12.1122 87.3351 12.968C87.6391 13.4136 87.943 13.8593 88.247 14.3049C88.365 14.4761 89.0084 15.6594 89.1707 15.6594C87.8575 15.6594 86.5472 15.6594 85.11 15.6594C84.1272 14.1839 83.0737 12.605 82.0231 11.0321C81.1732 11.0321 80.3528 11.0321 79.4822 11.0321C79.4822 12.5696 79.4822 14.0806 79.4822 15.6565C78.2811 15.6565 77.1302 15.6565 75.9409 15.6565C75.9409 10.6012 75.9409 5.55188 75.9409 0.375631C77.1361 0.375631 78.346 0.375631 79.5589 0.375631C80.8869 0.375631 82.2179 0.307755 83.537 0.393338C85.9333 0.543844 87.7896 1.75085 88.4093 3.83138ZM79.4999 3.64546C79.4999 5.08856 79.4999 6.39885 79.4999 7.72685C79.4999 7.72685 82.0497 7.72685 82.2828 7.72685C82.8583 7.72685 83.3541 7.85965 83.9089 7.63832C84.3781 7.4524 84.7972 7.09827 84.9683 6.61428C85.0775 6.30147 85.0834 5.96504 85.0657 5.63451C85.0244 4.84067 84.5611 3.94648 83.7525 3.70744C83.2242 3.55103 82.5868 3.64546 82.0379 3.64546C81.1909 3.64546 80.3439 3.64546 79.4999 3.64546Z" fill="white"/>
<path d="M49.6111 25.3037C51.8303 24.1705 54.1853 23.7337 56.5964 24.0377C58.6238 24.2915 60.6187 25.3391 61.4509 27.3163C61.8198 28.1928 62.0766 29.45 62.0589 30.4062C61.9998 33.3455 62.0382 36.2848 62.0382 39.2772C60.8843 39.2772 59.7688 39.2772 58.547 39.2772C58.5205 38.8759 58.491 38.4096 58.4526 37.8754C57.9391 38.1263 57.5673 38.445 57.0862 38.7608C56.7115 39.0087 56.2835 39.1621 55.8615 39.3097C54.2768 39.8733 52.1402 39.7819 50.6292 39.0116C49.3307 38.3506 48.227 36.7186 48.2034 35.2489C48.1916 34.5023 48.4306 33.6022 48.711 32.9058C49.6789 30.5183 52.6153 29.8897 54.9231 29.9192C55.5428 29.9281 56.1655 29.9812 56.7764 30.0874C57.0951 30.1406 58.128 30.5773 58.3936 30.4298C58.91 30.1435 58.187 28.5853 57.883 28.2371C57.3223 27.5997 56.4459 27.2691 55.6225 27.1717C55.2093 27.1245 50.3961 27.4993 50.6145 28.1072C50.2839 27.1924 49.9505 26.2569 49.6111 25.3037ZM58.4821 32.832C57.16 32.5605 55.773 32.109 54.4125 32.3155C52.996 32.531 51.5411 33.4488 51.7064 35.0453C51.7949 35.91 52.5209 36.7038 53.3413 36.9193C53.8725 37.058 54.4302 37.0314 54.9762 36.999C56.6318 36.8986 57.3755 36.1667 58.4821 35.0601C58.4821 34.3902 58.4821 33.7055 58.4821 32.832Z" fill="white"/>
<path d="M115.745 25.3687C115.775 25.2536 115.866 25.1621 115.961 25.0883C116.622 24.5955 117.678 24.4804 118.463 24.3122C119.529 24.0849 120.618 23.9403 121.71 23.9787C123.463 24.0407 125.328 24.625 126.567 25.9176C128.137 27.5554 127.898 30.055 127.883 32.171C127.872 33.983 127.857 35.7979 127.845 37.6099C127.842 37.9611 127.975 38.6575 127.836 38.9733C127.662 39.3687 127.582 39.2861 127.081 39.2891C126.871 39.2891 124.622 39.2891 124.622 39.2891C124.622 38.7461 124.622 38.1794 124.622 37.3649C122.267 40.0003 117.371 40.6967 115.067 37.5715C113.269 35.1368 114.651 31.8552 117.171 30.5951C118.277 30.0403 119.529 29.8455 120.756 29.9104C121.081 29.9281 124.46 30.5597 124.469 30.4741C124.758 28.063 122.763 27.1954 120.724 27.1984C119.287 27.2013 117.882 27.5702 116.483 27.8565C116.253 27.1393 116.02 26.4252 115.79 25.708C115.754 25.6018 115.722 25.4897 115.742 25.3805C115.742 25.3775 115.742 25.3716 115.745 25.3687ZM121.837 36.9459C122.43 36.8072 122.99 36.5386 123.466 36.1432C124.407 35.3611 124.785 34.1217 124.546 32.9353C124.519 32.8084 123.666 32.5959 123.533 32.5576C123.185 32.4513 122.831 32.3687 122.471 32.3126C121.81 32.2093 121.128 32.1916 120.467 32.3008C119.774 32.4159 119.042 32.6697 118.493 33.1212C118.127 33.4223 117.926 33.8384 117.853 34.3017C117.785 34.7355 117.723 35.3847 117.956 35.7713C118.033 35.9012 118.145 36.0045 118.26 36.1048C119.231 36.9636 120.597 37.2351 121.837 36.9459Z" fill="white"/>
<path d="M73.4944 3.62781C70.7528 3.62781 68.0614 3.62781 65.3257 3.62781C65.3257 4.59873 65.3257 5.51947 65.3257 6.54351C67.7279 6.54351 70.1596 6.54351 72.6268 6.54351C72.6268 7.56755 72.6268 8.48829 72.6268 9.46511C70.2334 9.46511 67.8371 9.46511 65.3287 9.46511C65.3139 10.0317 65.2933 10.5511 65.2844 11.0705C65.2785 11.6047 65.2815 12.1388 65.2815 12.7231C68.023 12.7231 70.7145 12.7231 73.4767 12.7231C73.4767 13.7265 73.4767 14.6827 73.4767 15.6772C69.6048 15.6772 65.733 15.6772 61.8021 15.6772C61.8021 10.6042 61.8021 5.51652 61.8021 0.399292C65.7005 0.399292 69.5694 0.399292 73.4944 0.399292C73.4944 1.43218 73.4944 2.45327 73.4944 3.62781Z" fill="white"/>
<path d="M59.6242 15.689C55.7022 15.689 51.8333 15.689 47.9171 15.689C47.9171 10.6101 47.9171 5.56073 47.9171 0.440552C51.7861 0.440552 55.6933 0.440552 59.636 0.440552C59.636 1.35835 59.636 2.2791 59.636 3.2146C59.5121 3.33855 59.3734 3.47725 59.2347 3.61595C56.679 3.61595 54.1204 3.61595 51.4614 3.61595C51.4467 4.08223 51.4231 4.5544 51.4142 5.02658C51.4054 5.51056 51.4113 5.99455 51.4113 6.5287C53.7663 6.5287 56.0622 6.5287 58.4261 6.5287C58.4261 7.53208 58.4261 8.48824 58.4261 9.49457C56.1242 9.49457 53.8282 9.49457 51.4703 9.49457C51.4703 10.5983 51.4703 11.6518 51.4703 12.7555C54.1883 12.7555 56.8797 12.7555 59.6213 12.7555C59.6242 13.7294 59.6242 14.6502 59.6242 15.689Z" fill="white"/>
<path d="M135.902 43.0488C135.601 43.1993 135.276 43.2967 134.945 43.3675C133.346 43.7157 131.614 43.4118 130.224 42.5441C130.598 41.6293 131.006 40.7263 131.442 39.838C131.953 40.3397 132.685 40.6112 133.399 40.561C134.113 40.5138 134.801 40.1478 135.241 39.5842C135.326 39.472 135.409 39.3481 135.418 39.2064C135.426 39.0795 135.379 38.9585 135.332 38.8434C133.564 34.3932 131.8 29.9429 130.032 25.4926C129.831 24.9909 129.509 24.5335 129.312 24.0525C130.294 23.8164 131.501 23.9374 132.517 23.8961C132.638 23.8902 132.956 23.8961 132.956 23.8961C132.956 23.8961 133.069 24.1764 133.125 24.3181C134.47 27.8387 135.816 31.3565 137.159 34.8771C138.398 31.3594 139.638 27.8446 140.877 24.3269C140.913 24.2295 140.954 24.1233 141.042 24.0672C141.116 24.023 141.208 24.02 141.293 24.02C142.4 24.0259 143.507 24.0318 144.616 24.0407C142.86 28.6532 141.104 33.2658 139.349 37.8784C138.744 39.4632 138.109 41.101 136.905 42.2992C136.613 42.5884 136.291 42.8511 135.925 43.037C135.919 43.0399 135.91 43.0458 135.902 43.0488Z" fill="white"/>
<path d="M21.4073 0.381592C22.5671 0.381592 23.6442 0.381592 24.7066 0.381592C26.858 5.4457 29.0034 10.4921 31.2227 15.7185C30.4642 15.7185 29.8888 15.7185 29.3163 15.7185C28.7762 15.7185 28.2362 15.7185 27.6223 15.7185C27.1708 14.6679 26.7075 13.5908 26.2353 12.4989C24.1282 12.4989 22.03 12.4989 19.8402 12.4989C19.3563 13.5613 18.8634 14.6384 18.3824 15.692C17.1518 15.692 16.0363 15.692 14.8971 15.692C15.75 13.5377 16.718 11.463 17.5679 9.33527C18.1374 7.90988 18.8133 6.51401 19.4064 5.08862C20.0468 3.53928 20.7197 1.9988 21.4073 0.381592ZM23.0068 4.57512C22.2838 6.29857 21.6817 7.73281 21.0561 9.22903C21.7526 9.22903 22.3841 9.24083 23.0156 9.22608C23.6295 9.21132 24.2551 9.30576 24.9044 9.14345C24.2817 7.63838 23.6914 6.21594 23.0068 4.57512Z" fill="white"/>
<path d="M14.1623 2.56835C13.4422 3.41532 12.7281 4.25639 12.0286 5.07975C10.6357 3.66617 8.93883 3.14677 7.11504 3.33269C6.10871 3.78421 5.24993 4.2977 4.642 5.10631C4.05473 5.88835 3.73306 6.86517 3.66814 7.77707C3.60026 8.70372 4.01932 9.66283 4.21704 10.5688C6.78156 13.7501 9.78284 13.2632 12.0375 11.0292C12.7694 11.7581 13.4983 12.4841 14.2302 13.213C11.0902 17.1469 5.01089 16.7721 2.12471 13.4993C-0.675901 10.3239 -0.838212 5.65227 2.41982 2.37653C5.70736 -0.928717 11.2643 -0.713286 14.1623 2.56835Z" fill="white"/>
<path d="M144.808 37.365C145.428 36.4531 145.971 35.6563 146.484 34.9037C146.956 35.2254 147.319 35.5323 147.733 35.7389C148.459 36.1019 149.185 36.5593 150.008 36.6596C150.864 36.7629 151.811 36.7747 152.646 36.5504C152.935 36.4708 153.242 36.3409 153.381 36.0724C153.467 35.9101 153.475 35.7182 153.478 35.5353C153.484 35.2815 153.481 35.0277 153.47 34.7739C153.464 34.6352 153.455 34.4935 153.402 34.3637C153.219 33.921 152.345 33.7469 151.938 33.6229C151.318 33.4311 150.687 33.2777 150.094 33.0121C149.238 32.6284 148.296 32.4897 147.502 31.9615C147.378 31.8788 147.258 31.7873 147.142 31.69C146.26 30.9315 145.325 29.5711 145.575 28.2283C145.785 27.0892 146.101 25.9619 147.131 25.1857C147.921 24.5925 148.83 24.1233 149.733 24.0348C151.123 23.8961 152.546 23.8311 153.945 24.4745C154.759 24.8493 155.656 25.0795 156.527 25.652C156.297 26.5521 155.659 27.2899 155.199 28.128C155.196 28.1339 153.145 27.2131 152.947 27.1482C152.18 26.9003 151.227 26.7203 150.421 26.8413C149.742 26.9416 149.067 27.3518 148.851 28.004C148.795 28.1722 148.774 28.3582 148.842 28.5205C148.907 28.6769 149.049 28.789 149.188 28.8894C150.167 29.6006 151.295 30.0728 152.431 30.4653C153.532 30.8459 154.65 31.1676 155.562 31.9349C155.901 32.2182 156.196 32.5605 156.424 32.9412C156.754 33.499 156.964 34.0892 156.961 34.7355C156.955 36.0251 156.48 37.4004 155.518 38.2887C154.621 39.115 153.36 39.4839 152.171 39.6226C151.894 39.655 151.616 39.6727 151.339 39.6727C150.271 39.6727 149.226 39.416 148.211 39.1032C147.75 38.9615 147.296 38.8051 146.841 38.6516C146.163 38.4333 145.59 37.8755 144.808 37.365Z" fill="white"/>
<path d="M69.6668 35.6326C69.6727 35.6474 69.6786 35.6621 69.6845 35.6798C69.7524 35.8599 69.8321 36.0428 69.9678 36.1815C70.2511 36.4737 73.1816 36.3704 73.1816 36.1255C73.1816 37.0403 73.1816 37.9965 73.1816 38.9526C73.1816 39.3805 70.9092 39.537 70.5817 39.5753C68.451 39.8232 66.2819 38.7401 65.8481 36.5062C65.2608 33.4636 65.7743 30.3944 65.5264 27.2869C65.0277 27.2869 64.4994 27.2869 63.921 27.2869C63.6495 26.2894 63.9092 25.3273 63.7646 24.3269C64.3755 24.3269 64.9008 24.3269 65.5323 24.3269C65.5323 22.931 65.5323 21.5794 65.5323 20.1895C66.8485 20.1895 68.0644 20.1895 69.3835 20.1895C69.3835 21.5056 69.3835 22.8573 69.3835 24.2561C70.6997 24.2561 71.9156 24.2561 73.1904 24.2561C73.1904 25.2595 73.1904 26.2156 73.1904 27.222C71.9451 27.222 70.7292 27.222 69.4632 27.222C69.7258 27.2279 69.413 30.1199 69.3983 30.3413C69.2832 32.0647 69.0648 33.98 69.6668 35.6326Z" fill="white"/>
<path d="M81.247 21.8657C81.247 20.7118 81.247 19.5963 81.247 18.4276C85.0274 18.4276 88.796 18.4276 92.5026 18.4276C92.5999 18.345 92.6442 18.3184 92.6708 18.2801C92.6973 18.2447 92.7239 18.1974 92.7239 18.1561C92.7268 16.4917 92.7268 14.8273 92.7268 12.9769C96.3508 15.9664 99.8538 18.8555 103.501 21.8657C95.9996 21.8657 88.6927 21.8657 81.247 21.8657Z" fill="white"/>
<path d="M150.569 47.9063C150.569 46.3747 150.569 44.964 150.569 43.4589C146.717 43.4589 142.913 43.4589 138.814 43.4589C140.243 42.7743 140.47 41.5083 141.187 40.5551C147.045 40.5551 152.912 40.5551 159 40.5551C158.147 41.2043 157.722 42.0365 156.834 42.37C156.707 42.4172 156.627 42.5736 156.518 42.674C155.311 43.7865 154.113 44.9109 152.888 45.9999C152.171 46.6373 151.41 47.2187 150.569 47.9063Z" fill="white"/>
</svg>
